# Blender 3.4.1
# www.blender.org
mtllib Rock.mtl
o Icosphere
v 0.278586 -0.380300 -0.056658
v 0.407018 0.075823 0.522688
v -0.056785 -0.132140 0.671608
v -0.611607 -0.331809 0.005870
v 0.015570 -0.170458 -0.573859
v 0.672542 -0.060769 -0.207421
v 0.337410 0.554147 0.527206
v -0.467051 0.176285 0.525961
v -0.427979 0.041228 -0.244454
v 0.367020 0.197089 -0.361488
v 0.557836 0.389707 -0.027958
v 0.062924 0.469863 -0.061753
vn 0.4824 -0.7370 0.4733
vn 0.6668 -0.6503 0.3641
vn -0.0300 -0.9503 0.3100
vn -0.0750 -0.9367 -0.3419
vn 0.4126 -0.7515 -0.5147
vn 0.9404 0.1115 0.3212
vn 0.2919 0.0335 0.9559
vn -0.5936 -0.4870 0.6407
vn -0.6412 -0.1843 -0.7449
vn 0.4807 0.0463 -0.8757
vn 0.9341 0.1328 0.3315
vn -0.1309 0.2756 0.9523
vn -0.9194 0.3769 -0.1127
vn -0.2335 0.6442 -0.7284
vn 0.6644 0.4164 -0.6206
vn 0.1705 0.9612 -0.2170
vn -0.4242 0.9030 0.0685
vn -0.6126 0.7726 -0.1665
vn -0.2298 0.5923 -0.7722
vn 0.1694 0.8084 -0.5638
vt 0.181819 0.000000
vt 0.363637 0.000000
vt 0.909091 0.000000
vt 0.727273 0.000000
vt 0.545455 0.000000
vt 0.272728 0.157461
vt 1.000000 0.157461
vt 0.090910 0.157461
vt 0.818182 0.157461
vt 0.636364 0.157461
vt 0.454546 0.157461
vt 0.181819 0.314921
vt 0.000000 0.314921
vt 0.909091 0.314921
vt 0.727273 0.314921
vt 0.545455 0.314921
vt 0.363637 0.314921
vt 0.272728 0.472382
vt 0.090910 0.472382
vt 0.818182 0.472382
vt 0.636364 0.472382
vt 0.454546 0.472382
s 0
f 1/1/1 2/6/1 3/8/1
f 2/6/2 1/2/2 6/11/2
f 1/3/3 3/7/3 4/9/3
f 1/4/4 4/9/4 5/10/4
f 1/5/5 5/10/5 6/11/5
f 2/6/6 6/11/6 11/17/6
f 3/8/7 2/6/7 7/12/7
f 4/9/8 3/7/8 8/14/8
f 5/10/9 4/9/9 9/15/9
f 6/11/10 5/10/10 10/16/10
f 2/6/11 11/17/11 7/12/11
f 3/8/12 7/12/12 8/13/12
f 4/9/13 8/14/13 9/15/13
f 5/10/14 9/15/14 10/16/14
f 6/11/15 10/16/15 11/17/15
f 7/12/16 11/17/16 12/18/16
f 8/13/17 7/12/17 12/19/17
f 9/15/18 8/14/18 12/20/18
f 10/16/19 9/15/19 12/21/19
f 11/17/20 10/16/20 12/22/20
