# Blender 3.4.1
# www.blender.org
mtllib Cross.mtl
o Cube
v -1.000000 -1.000000 1.000000
v -1.000000 -1.000000 -1.000000
v 1.000000 -1.000000 1.000000
v 1.000000 -1.000000 -1.000000
v -0.500000 8.500000 0.500000
v -0.500000 8.500000 -0.500000
v 0.500000 8.500000 -0.500000
v 0.500000 8.500000 0.500000
v -0.450000 8.800000 0.750000
v -0.450000 8.800000 -0.750000
v 0.450000 8.800000 -0.750000
v 0.450000 8.800000 0.750000
v -0.450000 10.000000 0.450000
v -0.450000 10.000000 -0.450000
v 0.450000 10.000000 -0.450000
v 0.450000 10.000000 0.450000
v -0.450000 9.700000 0.750000
v -0.450000 9.700000 -0.750000
v 0.450000 9.700000 -0.750000
v 0.450000 9.700000 0.750000
v -0.637725 8.500000 0.637725
v -0.637725 8.612274 0.750000
v -0.750000 8.612274 0.637725
v -0.750000 8.612274 -0.637725
v -0.637725 8.612274 -0.750000
v -0.637725 8.500000 -0.637725
v -0.750000 9.887726 0.637725
v -0.637725 9.887726 0.750000
v -0.637725 10.000000 0.637725
v -0.637725 10.000000 -0.637725
v -0.637725 9.887726 -0.750000
v -0.750000 9.887726 -0.637725
v 0.637725 8.612274 -0.750000
v 0.750000 8.612274 -0.637725
v 0.637725 8.500000 -0.637725
v 0.750000 8.612274 0.637725
v 0.637725 8.612274 0.750000
v 0.637725 8.500000 0.637725
v 0.637725 10.000000 -0.637725
v 0.750000 9.887726 -0.637725
v 0.637725 9.887726 -0.750000
v 0.637725 10.000000 0.637725
v 0.637725 9.887726 0.750000
v 0.750000 9.887726 0.637725
v -0.450000 12.817755 0.450000
v -0.267755 13.000000 0.267755
v -0.267755 13.000000 -0.267755
v -0.450000 12.817755 -0.450000
v 0.267755 13.000000 -0.267755
v 0.450000 12.817755 -0.450000
v 0.267755 13.000000 0.267755
v 0.450000 12.817755 0.450000
v 0.450000 8.800000 3.567755
v 0.267755 8.982245 3.750000
v -0.267755 8.982245 3.750000
v -0.450000 8.800000 3.567755
v 0.267755 9.517755 3.750000
v 0.450000 9.700000 3.567755
v -0.450000 9.700000 3.567755
v -0.267755 9.517755 3.750000
v -0.450000 8.800000 -3.567755
v -0.267755 8.982245 -3.750000
v 0.267755 8.982245 -3.750000
v 0.450000 8.800000 -3.567755
v -0.267755 9.517755 -3.750000
v -0.450000 9.700000 -3.567755
v 0.450000 9.700000 -3.567755
v 0.267755 9.517755 -3.750000
v -0.620036 1.000000 0.450280
v -0.450280 1.000000 0.620036
v -0.500000 1.120036 0.500000
v -0.500000 1.120036 -0.500000
v -0.450280 1.000000 -0.620036
v -0.620036 1.000000 -0.450280
v 0.500000 1.120036 0.500000
v 0.450280 1.000000 0.620036
v 0.620036 1.000000 0.450280
v 0.500000 1.120036 -0.500000
v 0.620036 1.000000 -0.450280
v 0.450280 1.000000 -0.620036
v -0.879964 1.000000 0.710208
v -1.000000 0.879964 1.000000
v -0.710208 1.000000 0.879964
v -0.879964 1.000000 -0.710208
v -0.710208 1.000000 -0.879964
v -1.000000 0.879964 -1.000000
v 0.710208 1.000000 -0.879964
v 0.879964 1.000000 -0.710208
v 1.000000 0.879964 -1.000000
v 0.879964 1.000000 0.710208
v 0.710208 1.000000 0.879964
v 1.000000 0.879964 1.000000
v 0.691850 8.800000 0.450000
v 0.750000 8.741850 0.508150
v -0.750000 8.741850 0.508150
v -0.691850 8.800000 0.450000
v 0.750000 9.758150 0.508150
v 0.691850 9.700000 0.450000
v -0.691850 9.700000 0.450000
v -0.750000 9.758150 0.508150
v -0.691850 8.800000 -0.450000
v -0.750000 8.741850 -0.508150
v 0.750000 8.741850 -0.508150
v 0.691850 8.800000 -0.450000
v -0.750000 9.758150 -0.508150
v -0.691850 9.700000 -0.450000
v 0.691850 9.700000 -0.450000
v 0.750000 9.758150 -0.508150
vn -0.0000 -0.0000 -1.0000
vn 1.0000 -0.0000 -0.0000
vn -1.0000 -0.0000 -0.0000
vn -0.0000 -1.0000 -0.0000
vn -0.0000 1.0000 -0.0000
vn -0.0000 -0.0000 1.0000
vn -0.5773 -0.5774 0.5773
vn -0.5773 -0.5774 -0.5773
vn -0.5774 0.5773 0.5773
vn -0.5774 0.5774 -0.5773
vn 0.5773 -0.5774 -0.5773
vn 0.5773 -0.5774 0.5773
vn 0.5774 0.5774 -0.5773
vn 0.5774 0.5774 0.5773
vn -0.7071 -0.7071 -0.0000
vn -0.0000 -0.7071 -0.7071
vn 0.7071 -0.7071 -0.0000
vn -0.0000 -0.7071 0.7071
vn -0.7071 0.7071 -0.0000
vn -0.0000 0.7071 -0.7071
vn 0.7071 0.7071 -0.0000
vn -0.0000 0.7071 0.7071
vn 0.7071 -0.0000 -0.7071
vn 0.7071 -0.0000 0.7071
vn -0.7071 -0.0000 0.7071
vn -0.7071 -0.0000 -0.7071
vn -0.6533 0.3827 0.6533
vn -0.6533 0.3827 -0.6533
vn 0.6533 0.3827 0.6533
vn 0.6533 0.3827 -0.6533
vn -0.2706 0.9239 0.2706
vn -0.2706 0.9239 -0.2706
vn 0.2706 0.9239 -0.2706
vn 0.2706 0.9239 0.2706
vt 0.375000 0.000000
vt 0.125000 0.750000
vt 0.375000 1.000000
vt 0.375000 0.250000
vt 0.125000 0.500000
vt 0.375000 0.750000
vt 0.375000 0.500000
vt 0.812500 0.687500
vt 0.812500 0.562500
vt 0.687500 0.562500
vt 0.687500 0.687500
vt 0.787500 0.687500
vt 0.787500 0.562500
vt 0.712500 0.562500
vt 0.712500 0.687500
vt 0.787500 0.662500
vt 0.787500 0.587500
vt 0.712500 0.587500
vt 0.712500 0.662500
vt 0.787500 0.687500
vt 0.787500 0.562500
vt 0.712500 0.562500
vt 0.712500 0.687500
vt 0.812500 0.687500
vt 0.803144 0.687500
vt 0.812500 0.678144
vt 0.812500 0.571856
vt 0.803144 0.562500
vt 0.812500 0.562500
vt 0.812500 0.678144
vt 0.803144 0.687500
vt 0.803144 0.678144
vt 0.803144 0.571856
vt 0.803144 0.562500
vt 0.812500 0.571856
vt 0.696856 0.562500
vt 0.687500 0.571856
vt 0.687500 0.562500
vt 0.687500 0.678144
vt 0.696856 0.687500
vt 0.687500 0.687500
vt 0.696856 0.571856
vt 0.687500 0.571856
vt 0.696856 0.562500
vt 0.696856 0.678144
vt 0.696856 0.687500
vt 0.687500 0.678144
vt 0.787500 0.662500
vt 0.772313 0.647313
vt 0.772313 0.602687
vt 0.787500 0.587500
vt 0.727687 0.602687
vt 0.712500 0.587500
vt 0.727687 0.647313
vt 0.712500 0.662500
vt 0.712500 0.687500
vt 0.727687 0.687500
vt 0.772313 0.687500
vt 0.787500 0.687500
vt 0.727687 0.687500
vt 0.712500 0.687500
vt 0.787500 0.687500
vt 0.772313 0.687500
vt 0.787500 0.562500
vt 0.772313 0.562500
vt 0.727687 0.562500
vt 0.712500 0.562500
vt 0.772313 0.562500
vt 0.787500 0.562500
vt 0.712500 0.562500
vt 0.727687 0.562500
vt 0.827504 0.681285
vt 0.806285 0.702505
vt 0.812500 0.687500
vt 0.812500 0.562500
vt 0.806285 0.547496
vt 0.827505 0.568715
vt 0.687500 0.687500
vt 0.693715 0.702504
vt 0.672496 0.681285
vt 0.687500 0.562500
vt 0.672495 0.568715
vt 0.693715 0.547496
vt 0.859995 0.713776
vt 0.609995 0.000000
vt 0.609995 1.000000
vt 0.875000 0.750000
vt 0.849386 0.724386
vt 0.838776 0.734996
vt 0.859996 0.536224
vt 0.849386 0.525614
vt 0.838776 0.515004
vt 0.609995 0.250000
vt 0.875000 0.500000
vt 0.661224 0.515005
vt 0.650614 0.525614
vt 0.640004 0.536224
vt 0.625000 0.500000
vt 0.609995 0.500000
vt 0.650614 0.724386
vt 0.640005 0.713776
vt 0.661224 0.734995
vt 0.609995 0.750000
vt 0.625000 0.750000
vt 0.692346 0.662500
vt 0.687500 0.667346
vt 0.812500 0.667346
vt 0.807654 0.662500
vt 0.687500 0.667346
vt 0.692346 0.662500
vt 0.807654 0.662500
vt 0.812500 0.667346
vt 0.807654 0.587500
vt 0.812500 0.582654
vt 0.687500 0.582654
vt 0.692346 0.587500
vt 0.812500 0.582654
vt 0.807654 0.587500
vt 0.692346 0.587500
vt 0.687500 0.582654
s 0
usemtl GoldTrim
f 5/8/4 8/11/4 38/41/4 21/24/4
f 6/9/4 5/8/4 21/24/4 26/29/4
f 7/10/4 6/9/4 26/29/4 35/38/4
f 8/11/4 7/10/4 35/38/4 38/41/4
f 21/24/7 22/25/7 23/26/7
f 24/27/8 25/28/8 26/29/8
f 27/30/9 28/31/9 29/32/9
f 30/33/10 31/34/10 32/35/10
f 33/36/11 34/37/11 35/38/11
f 36/39/12 37/40/12 38/41/12
f 39/42/13 40/43/13 41/44/13
f 42/45/14 43/46/14 44/47/14
f 23/26/15 24/27/15 26/29/15 21/24/15
f 25/28/16 33/36/16 35/38/16 26/29/16
f 34/37/17 36/39/17 38/41/17 35/38/17
f 37/40/18 22/25/18 21/24/18 38/41/18
f 29/32/19 30/33/19 32/35/19 27/30/19
f 30/33/20 39/42/20 41/44/20 31/34/20
f 39/42/21 42/45/21 44/47/21 40/43/21
f 42/45/22 29/32/22 28/31/22 43/46/22
f 33/36/23 41/44/23 40/43/23 34/37/23
f 43/46/24 37/40/24 36/39/24 44/47/24
f 22/25/25 28/31/25 27/30/25 23/26/25
f 31/34/26 25/28/26 24/27/26 32/35/26
f 46/49/19 47/50/19 48/51/19 45/48/19
f 47/50/20 49/52/20 50/53/20 48/51/20
f 49/52/21 51/54/21 52/55/21 50/53/21
f 51/54/22 46/49/22 45/48/22 52/55/22
f 54/57/18 55/58/18 56/59/18 53/56/18
f 58/61/22 59/62/22 60/63/22 57/60/22
f 57/60/24 54/57/24 53/56/24 58/61/24
f 55/58/25 60/63/25 59/62/25 56/59/25
f 62/65/16 63/66/16 64/67/16 61/64/16
f 66/69/20 67/70/20 68/71/20 65/68/20
f 63/66/23 68/71/23 67/70/23 64/67/23
f 65/68/26 62/65/26 61/64/26 66/69/26
f 69/72/27 70/73/27 71/74/27
f 72/75/28 73/76/28 74/77/28
f 75/78/29 76/79/29 77/80/29
f 78/81/30 79/82/30 80/83/30
f 71/74/19 72/75/19 74/77/19 69/72/19
f 72/75/20 78/81/20 80/83/20 73/76/20
f 78/81/21 75/78/21 77/80/21 79/82/21
f 75/78/22 71/74/22 70/73/22 76/79/22
f 100/112/15 105/117/15 106/118/15 99/111/15
usemtl Wood
f 71/74/6 75/78/6 8/11/6 5/8/6
f 75/78/2 78/81/2 7/10/2 8/11/2
f 78/81/1 72/75/1 6/9/1 7/10/1
f 18/21/1 10/13/1 25/28/1 31/34/1
f 103/115/2 94/106/2 36/39/2 34/37/2
f 12/15/6 9/12/6 22/25/6 37/40/6
f 97/109/2 108/120/2 40/43/2 44/47/2
f 9/12/4 12/15/4 53/56/4 56/59/4
f 105/117/3 100/112/3 27/30/3 32/35/3
f 17/20/3 9/12/3 56/59/3 59/62/3
f 18/21/5 19/22/5 67/70/5 66/69/5
f 17/20/6 20/23/6 43/46/6 28/31/6
f 95/107/3 102/114/3 24/27/3 23/26/3
f 13/16/5 14/17/5 30/33/5 29/32/5
f 13/16/6 16/19/6 52/55/6 45/48/6
f 49/52/5 47/50/5 46/49/5 51/54/5
f 15/18/1 14/17/1 48/51/1 50/53/1
f 16/19/2 15/18/2 50/53/2 52/55/2
f 19/22/1 18/21/1 31/34/1 41/44/1
f 10/13/1 11/14/1 33/36/1 25/28/1
f 12/15/2 20/23/2 58/61/2 53/56/2
f 55/58/6 54/57/6 57/60/6 60/63/6
f 20/23/5 17/20/5 59/62/5 58/61/5
f 11/14/4 10/13/4 61/64/4 64/67/4
f 108/120/2 103/115/2 34/37/2 40/43/2
f 14/17/5 15/18/5 39/42/5 30/33/5
f 10/13/3 18/21/3 66/69/3 61/64/3
f 63/66/1 62/65/1 65/68/1 68/71/1
f 19/22/2 11/14/2 64/67/2 67/70/2
f 16/19/5 13/16/5 29/32/5 42/45/5
f 9/12/6 17/20/6 28/31/6 22/25/6
f 15/18/5 16/19/5 42/45/5 39/42/5
f 11/14/1 19/22/1 41/44/1 33/36/1
f 20/23/6 12/15/6 37/40/6 43/46/6
f 102/114/3 105/117/3 32/35/3 24/27/3
f 94/106/2 97/109/2 44/47/2 36/39/2
f 100/112/3 95/107/3 23/26/3 27/30/3
f 14/17/3 13/16/3 45/48/3 48/51/3
f 72/75/3 71/74/3 5/8/3 6/9/3
usemtl Base
f 2/4/1 86/93/1 89/99/1 4/7/1
f 4/7/2 89/99/2 92/103/2 3/6/2
f 1/1/3 82/85/3 86/93/3 2/4/3
f 2/5/4 4/7/4 3/6/4 1/2/4
f 76/79/5 70/73/5 83/89/5 91/102/5
f 3/6/6 92/103/6 82/86/6 1/3/6
f 73/76/5 80/83/5 87/95/5 85/92/5
f 79/82/5 77/80/5 90/101/5 88/97/5
f 69/72/5 74/77/5 84/90/5 81/84/5
f 99/111/4 106/118/4 107/119/4 98/110/4
f 96/108/1 99/111/1 98/110/1 93/105/1
f 106/118/6 101/113/6 104/116/6 107/119/6
f 81/84/31 82/87/31 83/88/31
f 84/90/32 85/91/32 86/94/32
f 87/95/33 88/96/33 89/98/33
f 90/100/34 91/102/34 92/104/34
f 81/84/19 84/90/19 86/94/19 82/87/19
f 85/92/20 87/95/20 89/98/20 86/94/20
f 88/97/21 90/101/21 92/103/21 89/99/21
f 91/102/22 83/89/22 82/87/22 92/104/22
f 83/89/5 70/73/5 69/72/5 81/84/5
f 73/76/5 85/92/5 84/90/5 74/77/5
f 79/82/5 88/97/5 87/95/5 80/83/5
f 76/79/5 91/102/5 90/101/5 77/80/5
f 96/108/19 101/113/19 102/114/19 95/107/19
f 95/107/26 100/112/26 99/111/26 96/108/26
f 105/117/25 102/114/25 101/113/25 106/118/25
f 104/116/21 93/105/21 94/106/21 103/115/21
f 108/120/17 97/109/17 98/110/17 107/119/17
f 103/115/24 108/120/24 107/119/24 104/116/24
f 97/109/23 94/106/23 93/105/23 98/110/23
f 96/108/5 93/105/5 104/116/5 101/113/5
